<svg xmlns="http://www.w3.org/2000/svg" viewBox="0 0 26 26" enable-background="new 0 0 26 26" width="104" height="104" style="fill: rgb(231, 76, 60);">
  <path d="M 13 1 C 6.3844277 1 1 6.3844277 1 13 C 1 19.615572 6.3844277 25 13 25 C 19.615572 25 25 19.615572 25 13 C 25 6.3844277 19.615572 1 13 1 z M 13 3 C 18.534692 3 23 7.4653079 23 13 C 23 18.534692 18.534692 23 13 23 C 7.4653079 23 3 18.534692 3 13 C 3 7.4653079 7.4653079 3 13 3 z M 12.90625 6 C 11.90625 6 10.90625 6.69375 10.90625 8.09375 C 10.90625 10.19375 12.0125 13.50625 12.3125 14.40625 C 12.6125 15.20625 13.39375 15.10625 13.59375 14.40625 C 13.89375 13.70625 15.00625 10.29375 14.90625 8.09375 C 14.90625 6.69375 13.90625 6 12.90625 6 z M 13 17 C 12.1 17 11.5 17.6 11.5 18.5 C 11.5 19.3 12.1 20 13 20 C 13.9 20 14.5 19.3 14.5 18.5 C 14.5 17.6 13.9 17 13 17 z"/>
</svg>